<svg viewBox="-65 0 511 511.96241" xmlns="http://www.w3.org/2000/svg" fill="#f7a12b">
    <path d="m287.035156 390.539062v-24.46875c-.5-17.367187-7.9375-33.808593-20.652344-45.648437l-45.125-42.085937-80.011718-30.289063c-2.074219 1.738281-4.417969 3.113281-6.941406 4.078125l-11.371094 4.425781c-25.65625 10.011719-39.078125 38.265625-30.632813 64.480469l5.46875 17.269531c.507813-.167969 1.03125-.285156 1.5625-.347656l50.589844-6.335937-5.898437-18.65625c-1.417969-4.378907.828124-9.097657 5.117187-10.761719l5.207031-1.996094c6.15625-2.40625 13.148438-1.058594 17.964844 3.472656l42.347656 39.484375c12.683594 12.4375 19.972656 29.359375 20.308594 47.121094v.257812zm0 0"/><path d="m78.761719 34.742188h51.722656v-7.203126c.296875-14.160156-10.375-26.152343-24.472656-27.507812-7.117188-.351562-14.066407 2.238281-19.21875 7.160156-5.152344 4.921875-8.058594 11.746094-8.027344 18.875zm0 0"/><path d="m78.765625 63.902344c-.003906 20.5625 6.0625 40.667968 17.441406 57.792968l52.152344 78.710938c3.5625 5.332031 5.019531 11.792969 4.082031 18.136719l-1.824218 13.015625c-.085938.433594-.171876.957031-.261719 1.390625l66.910156 25.339843c.28125-.839843.691406-1.628906 1.214844-2.34375l3.210937-4.859374c5.011719-7.628907 15.121094-9.992188 22.996094-5.382813l29.765625 17.269531c17.5 10.144532 39.316406 9.125 55.796875-2.601562l23.433594-16.75-33.324219-39.136719c-.191406-.164063-.339844-.371094-.433594-.605469l-15.101562 10.757813c-2.726563 2-6.382813 2.171875-9.285157.433593l-57.1875-33.234374-57.101562-40.179688c-10.757812-7.558594-19.976562-17.101562-27.160156-28.117188l-6.507813-10.066406c-10.054687-15.339844-15.890625-33.058594-16.925781-51.371094h-51.890625zm0 0"/><path d="m367.394531 232.949219c.191407.164062.339844.371093.433594.605469l3.730469-2.6875c5.808594-4.152344 9.664062-10.5 10.664062-17.566407 1-7.070312-.941406-14.238281-5.371094-19.835937-9.109374-10.789063-25.046874-12.613282-36.359374-4.167969l-6.421876 4.515625zm0 0"/><path d="m234.003906 43.421875c.058594 9.515625 7.808594 17.1875 17.324219 17.148437 9.515625-.039062 17.203125-7.777343 17.179687-17.292968-.023437-9.515625-7.746093-17.214844-17.261718-17.210938-9.550782.03125-17.269532 7.800782-17.242188 17.355469zm0 0"/><path d="m206.15625 99.566406c29.636719 17.3125 62.804688 27.695313 97.019531 30.375 2.320313.113282 4.585938-.734375 6.261719-2.34375s2.613281-3.835937 2.589844-6.160156c.171875-15.621094-2.949219-48.335938-28.550782-65.605469-4.675781 12.382813-16.03125 21-29.21875 22.164063-13.1875 1.164062-25.878906-5.324219-32.65625-16.699219-7.714843 7.921875-14.101562 17.035156-18.917968 26.988281-1.96875 4.089844-.457032 9.007813 3.472656 11.28125zm0 0"/><path d="m199.472656 121.523438c-.179687 23.652343 15.722656 44.40625 38.609375 50.390624 22.882813 5.980469 46.90625-4.335937 58.324219-25.050781-34.007812-3.585937-66.914062-14.128906-96.671875-30.980469-.171875 1.820313-.261719 3.730469-.261719 5.640626zm0 0"/><path d="m27.839844 160.574219c-1.152344 1.996093-1.464844 4.371093-.867188 6.597656.601563 2.230469 2.0625 4.125 4.0625 5.273437l60.746094 34.710938c4.160156 2.378906 9.457031.933594 11.835938-3.226562 2.375-4.160157.929687-9.460938-3.226563-11.835938l-60.746094-34.714844c-4.144531-2.355468-9.414062-.929687-11.804687 3.195313zm0 0"/><path d="m5 207.15625 26.035156 14.882812c4.164063 2.398438 9.480469.964844 11.875-3.195312 2.398438-4.164062.964844-9.480469-3.195312-11.878906l-26.035156-14.871094c-4.160157-2.398438-9.476563-.96875-11.871094 3.191406-2.398438 4.160156-.96875 9.476563 3.191406 11.871094zm0 0"/><path d="m22.21875 352.132812c.285156.136719.582031.269532.867188.378907.753906.289062 76.773437 28.785156 156.109374 68.816406 50.535157 25.769531 99.625 54.285156 147.046876 85.417969.296874.203125.609374.382812.929687.546875 5.652344 2.984375 11.933594 4.585937 18.328125 4.667969 14.546875-.558594 27.640625-8.980469 34.179688-21.988282 1.421874-2.757812 1.261718-6.0625-.414063-8.667968-1.675781-2.609376-4.617187-4.125-7.714844-3.976563-3.097656.148437-5.878906 1.9375-7.300781 4.695313-2.375 5.257812-6.808594 9.304687-12.257812 11.195312-5.449219 1.890625-11.4375 1.457031-16.558594-1.199219-3.847656-2.601562-30.019532-19.871093-67.34375-41.785156 11.199218-3.144531 18.9375-13.351563 18.945312-24.980469v-17.359375h-52.066406v17.359375c.027344 2.21875.335938 4.425782.925781 6.566406-15.410156-8.574218-31.828125-17.355468-48.875-25.980468-17.519531-8.84375-34.824219-17.085938-51.257812-24.636719 1.0625-.175781 2.109375-.417969 3.140625-.730469 13.203125-4.609375 20.40625-18.824218 16.3125-32.195312-.476563.167968-.972656.285156-1.472656.347656l-50.679688 6.421875 2.949219 9.199219c.542969 1.566406 1.226562 3.074218 2.050781 4.511718-42.402344-18.628906-74.15625-30.710937-78.414062-32.324218-5.191407-2.441406-9.125-6.933594-10.863282-12.398438-1.738281-5.464844-1.121094-11.40625 1.707032-16.394531 1.613281-2.792969 1.546874-6.25-.171876-8.976563-1.722656-2.730468-4.8125-4.277343-8.027343-4.023437-3.214844.257813-6.023438 2.273437-7.292969 5.242187-4.921875 9.160157-5.867188 19.941407-2.613281 29.820313 3.253906 9.878906 10.425781 17.988281 19.832031 22.429687zm0 0"/>
</svg>