<svg xmlns="http://www.w3.org/2000/svg" viewBox="0 0 511.976 511.976" fill="#f7a12b">
	<path d="M132.916,134.357c2.529-1.907,5.181-3.828,8.054-5.8l0.019-0.014l0.028-0.017l1.697-1.133
		c0.373-0.251,0.763-0.487,1.135-0.736c0.5-0.328,1.028-0.671,1.508-0.981L101.435,80.51l-11.823,11.82L132.916,134.357z"/>
	<path d="M179.59,206.081c-0.377,1.793-0.671,3.635-1.021,5.445c-0.659,3.401-1.302,6.808-1.865,10.254
		c1.133,2.5,2.355,4.962,3.571,7.429c0.985,1.999,1.91,4.023,2.948,5.998c1.546,2.94,3.233,5.813,4.894,8.698
		c1.052,1.825,2.033,3.682,3.13,5.484c1.911,3.141,3.974,6.2,6.023,9.267c0.984,1.473,1.895,2.988,2.911,4.444
		c3.125,4.492,6.398,8.89,9.817,13.194c2.175,2.736,4.366,5.308,6.571,7.853c-0.055-2.407-0.112-4.807-0.112-7.411
		c0-6.731,0.198-12.773,0.612-18.484l-0.004-0.032c0.171-3.423,0.427-6.915,0.768-10.451c0.339-3.514,0.76-7.096,1.266-10.695
		c1.505-11.594,3.731-23.083,6.667-34.4c8.302-32.744,22.161-63.821,40.975-91.878c-1.091-0.063-2.167-0.241-3.26-0.285
		c-2.107-0.085-4.22,0.036-6.33,0.022c-3.825-0.025-7.65-0.084-11.469,0.123c-2.451,0.133-4.876,0.468-7.318,0.696
		c-3.471,0.323-6.947,0.604-10.386,1.117c-2.501,0.373-4.953,0.931-7.429,1.403c-2.744,0.524-5.483,1.051-8.19,1.696
		c-7.242,13.613-13.546,27.705-18.869,42.177c-3.775,10.183-7.142,20.879-9.992,31.808
		C182.064,194.951,180.768,200.478,179.59,206.081z"/>
	<path d="M112.161,244.822c-0.821,10.578-1.264,21.234-1.264,31.913c0.037,24.205,2.223,48.36,6.533,72.178
		c4.187-0.211,8.273-0.498,12.2-0.953c13.057-1.394,25.948-4.052,38.492-7.938c0.237-0.1,0.479-0.187,0.725-0.262
		c1.483-0.464,2.95-0.942,4.4-1.434c-0.483-0.517-0.889-1.039-1.367-1.557c-3.875-4.191-7.669-8.449-11.175-12.727l-1.25-1.5h0
		C140.159,298.958,124.241,272.8,112.161,244.822z"/>
	<path d="M189.389,330.522c0.371,0.409,0.708,0.724,1.075,1.114c9.956-4.4,19.532-9.613,28.631-15.588
		c-0.21-1.616-0.418-3.234-0.602-4.862c-1.573-1.587-3.171-3.173-4.638-4.759c-2.76-2.798-5.477-5.731-8.176-8.77
		c-0.157-0.176-0.324-0.337-0.48-0.514c-1.224-1.387-2.431-2.914-3.647-4.356c-1.632-1.935-3.276-3.811-4.897-5.848l-0.025-0.029
		c-14.736-18.52-27.044-38.847-36.625-60.488l-0.009-0.028c-10.543-23.881-17.651-49.134-21.115-75.008
		c-0.265,0.212-0.552,0.394-0.815,0.608l-0.285,0.223c-4.057,3.306-7.945,6.757-11.663,10.353l-0.106,0.097
		c-5.919,5.692-11.443,11.78-16.535,18.222c1.855,8.657,4.019,17.193,6.577,25.37c11.822,38.491,31.04,74.305,56.575,105.438
		l1.192,1.429C178.623,318.985,183.831,324.806,189.389,330.522z"/>
	<path d="M166.989,185.206c2.992-11.446,6.525-22.683,10.492-33.379c3.713-10.078,7.994-19.857,12.533-29.445
		c-3.598,1.349-7.184,2.728-10.685,4.293c-0.254,0.117-0.512,0.213-0.767,0.332l-0.065,0.029l-0.021,0.01
		c-0.317,0.149-0.625,0.306-0.942,0.455c-4.444,2.043-8.821,4.226-13.094,6.613l-0.312,0.172
		c-3.166,1.778-6.217,3.773-9.285,5.737c1.685,17.625,5.179,35.029,10.429,51.938
		C165.831,189.689,166.397,187.439,166.989,185.206z"/>
	<path d="M416.448,62.318l24.067,24.062l0.025,0.037l0.008,0.009l48.267-48.275c3.201-3.201,5-7.542,5-12.069
		c0-4.527-1.799-8.868-5-12.069c-6.755-6.442-17.378-6.442-24.133,0l-48.275,48.275l0.005,0.005L416.448,62.318z"/>
	<path d="M236.015,239.335c-0.95,6.792-1.583,13.396-1.9,19.733c-0.4,5.55-0.592,11.267-0.592,17.667
		c0,6.608,0.192,12.467,0.575,17.908c0.184,2.989,0.46,5.814,0.731,8.652l0.931,0.868c2.106-1.66,4.229-3.299,6.267-5.035
		c1.563-1.347,3.14-2.693,4.61-4.056c2.84-2.564,5.607-5.202,8.301-7.915c1.901-1.918,3.705-3.848,5.495-5.801
		c2.532-2.751,5.05-5.517,7.438-8.404c0.804-0.963,1.593-1.925,2.342-2.876c3.35-4.197,6.6-8.485,9.647-12.951l0.005-0.007
		l0.075-0.114c2.127-3.147,4.098-6.381,6.044-9.628c0.769-1.215,1.521-2.425,2.19-3.703l0.074-0.113
		c1.185-2.078,2.276-4.202,3.388-6.316c1.285-2.471,2.602-4.948,3.752-7.415c1.538-3.228,3.046-6.47,4.412-9.769
		c2.1-5.054,3.952-10.188,5.642-15.37c0.523-1.609,0.959-3.244,1.444-4.866c1.075-3.598,2.073-7.216,2.951-10.866
		c0.47-1.956,0.905-3.919,1.32-5.888c0.756-3.608,1.403-7.241,1.968-10.891c0.274-1.762,0.584-3.517,0.811-5.289h0
		c0.694-5.392,1.24-10.813,1.512-16.277c0.167-3.438,0.25-6.883,0.25-10.412c0-6.663-0.348-13.469-1.028-20.293
		c-1.962-0.644-3.922-1.237-5.885-1.813c-2.818-0.827-5.634-1.667-8.448-2.353c-2.797-0.681-5.58-1.207-8.367-1.747
		c-1.991-0.387-3.978-0.755-5.959-1.069c-20.315,28.316-35.139,60.19-43.704,93.971
		C239.536,217.568,237.434,228.402,236.015,239.335z"/>
	<path d="M368.574,338.319c5.27,12.603,12.151,24.47,20.47,35.305c6.192,0.601,12.398,1.027,18.58,1.165
		c2.167,0.079,4.158,0.013,6.208,0.079c4.371,0,8.813-0.123,13.469-0.359c0.845-1.889,1.69-3.776,2.465-5.679
		c0.502-1.229,1.038-2.448,1.51-3.684c0.943-2.471,1.737-4.958,2.56-7.442c-19.033-19.281-30.683-44.639-32.912-71.64
		C391.811,304.464,380.979,321.96,368.574,338.319z"/>
	<path d="M441.431,327.012c0.169-1.084,0.296-2.177,0.446-3.266c0.435-3.153,0.789-6.32,1.063-9.502
		c0.104-1.206,0.215-2.41,0.295-3.62c0.276-4.168,0.464-8.35,0.464-12.556c0-5.459-0.304-10.856-0.757-16.219
		c-0.087-1.034-0.16-2.071-0.265-3.102c-0.517-5.147-1.245-10.244-2.182-15.29c-0.185-0.991-0.404-1.972-0.604-2.959
		c-1.018-5.021-2.194-10.002-3.626-14.913c-0.068-0.234-0.118-0.473-0.188-0.707c-1.501-5.065-3.289-10.049-5.228-14.986
		c-0.208-0.528-0.415-1.056-0.627-1.582c-8.386,14.758-12.772,31.45-12.723,48.424c0.023,22.445,7.705,44.21,21.775,61.697
		C440.114,334.652,440.834,330.845,441.431,327.012z"/>
	<path d="M422.317,92.333L410.5,80.516L366.528,125.8c4.205,2.707,8.362,5.583,12.444,8.667L422.317,92.333z"/>
	<path d="M258.447,412.228L258.447,412.228l0.001-0.001l0.007-0.004c6.475-3.546,13.117-7.583,20.367-12.383
		c10.043-6.696,19.666-14,28.817-21.871c5.308-4.342,10.467-8.963,15.95-14.267c5.583-5.504,10.842-11.046,15.575-16.408
		c0.103-0.114,0.214-0.214,0.32-0.322l0.109-0.109c0.1-0.098,0.193-0.204,0.296-0.298c4.4-5,8.483-9.925,12.167-14.654
		l1.725-2.233c30.25-39.318,50.605-85.331,59.35-134.163c-6.982-10.748-15.061-20.742-24.108-29.821
		c-1.96-1.96-4.002-3.792-6.027-5.652c-0.713,11.425-2.151,22.793-4.306,34.035c-4.518,22.931-11.95,45.189-22.117,66.233
		c-7.186,14.872-15.71,29.06-25.467,42.387c-4.97,6.982-10.323,13.684-16.033,20.075c-5.1,5.821-10.45,11.404-15.85,16.546
		c-4.88,4.907-10.006,9.563-15.358,13.95c-11.899,9.988-24.654,18.908-38.118,26.657l-0.015,0.013l-0.137,0.079l-0.075,0.045
		l-0.01,0.004c-3.127,1.898-6.252,3.643-9.46,5.377c-34.604,18.263-72.672,29.019-111.716,31.563
		c-4.225,0.29-8.634,0.387-13.033,0.439c9.817,12,21.093,22.728,33.566,31.937c19.914-2.415,39.54-6.794,58.592-13.071
		C222.529,430.099,240.947,422.032,258.447,412.228z"/>
	<path d="M96.372,199.379c-18.48,29.593-28.234,63.8-28.141,98.69c0,4.355,0.173,8.698,0.475,13.027
		c0.101,1.464,0.298,2.916,0.433,4.375c0.267,2.854,0.542,5.706,0.94,8.541c0.244,1.743,0.573,3.472,0.867,5.207
		c0.429,2.534,0.867,5.067,1.4,7.581c0.386,1.822,0.84,3.63,1.281,5.44c0.373,1.527,0.783,3.045,1.194,4.563
		c8.384,1.272,16.841,2.013,25.318,2.217c-8.087-46.166-8.401-93.359-0.929-139.629C98.207,206.107,97.275,202.755,96.372,199.379
		z"/>
	<path d="M218.617,449.058c7.327,12.537,15.411,24.615,24.208,36.168l0,0c4.324,0.301,8.683,0.576,13.14,0.576
		c13.962,0.014,27.881-1.527,41.502-4.593c-14.407-15.348-27.128-32.195-37.946-50.253
		C246.32,437.925,232.652,443.974,218.617,449.058z"/>
	<path d="M418.488,391.851c-1.549,0.027-3.126,0.084-4.657,0.084c-2.242,0-4.492-0.004-6.733-0.092
		c-7.783-0.171-15.767-0.704-23.575-1.583c-3.4-0.329-6.925-0.837-10.45-1.354c-0.158-0.017-0.308-0.033-0.45-0.054
		c-13.842-2.124-27.506-5.273-40.881-9.422c-4.476,4.192-8.827,8.089-13.119,11.601c-5.464,4.722-11.433,9.371-17.618,13.948
		c13.969,5.414,28.306,9.827,42.901,13.206c16.38,3.751,33.036,6.173,49.805,7.242c1.08-1.163,2.159-2.325,3.201-3.506
		c0.671-0.761,1.364-1.513,2.017-2.281v0c2.133-2.505,4.194-5.036,6.127-7.592c1.233-1.629,2.467-3.279,3.7-5.004l0.01-0.017
		l0.006-0.013c2.683-3.743,5.208-7.567,7.575-11.471C417.121,394.283,417.769,393.084,418.488,391.851z"/>
	<path d="M166.846,463.177c0.402,0.218,0.798,0.453,1.203,0.668c0.902,0.479,1.786,0.994,2.695,1.458
		c2.796,1.425,5.639,2.741,8.494,4.022c0.774,0.346,1.529,0.731,2.308,1.068c2.842,1.23,5.726,2.34,8.619,3.426
		c0.852,0.319,1.685,0.681,2.542,0.988c2.763,0.991,5.564,1.859,8.367,2.719c1.017,0.312,2.017,0.675,3.04,0.969
		c2.656,0.766,5.346,1.405,8.033,2.052c1.188,0.285,2.36,0.63,3.554,0.892c1.279,0.282,2.579,0.471,3.865,0.726
		c-6.273-9.029-12.093-18.236-17.46-27.621C190.524,458.087,178.753,460.969,166.846,463.177z"/>
	<path d="M284.36,416.54c-3.399,2.187-6.725,4.255-9.927,6.152c11.596,19.347,25.5,37.213,41.406,53.205
		c1.967-0.657,3.919-1.349,5.856-2.075c1.992-0.746,3.996-1.458,5.958-2.272c2.852-1.182,5.642-2.503,8.43-3.826
		c1.791-0.849,3.607-1.641,5.37-2.548c3.011-1.549,5.942-3.263,8.87-4.98c1.455-0.853,2.951-1.628,4.385-2.522
		c4.313-2.688,8.539-5.537,12.647-8.59h0c3.388-2.474,6.708-5.223,10.006-8.029C345.303,437.621,313.947,429.355,284.36,416.54z"
		/>
	<path d="M351.671,358.959l-0.024,0.023c-0.114,0.114-0.22,0.237-0.341,0.344c-1.813,2.042-3.758,4.12-5.702,6.196
		c6.754,1.825,13.532,3.379,20.334,4.661c-3.441-5.434-6.581-11.052-9.404-16.831c-1.482,1.742-2.939,3.476-4.495,5.236
		C351.927,358.721,351.796,358.836,351.671,358.959z"/>
	<path d="M71.381,86.427l0.009-0.009l0.025-0.037l24.067-24.063l0.048-0.04L47.248,14.014c-6.678-6.589-17.423-6.552-24.056,0.082
		s-6.668,17.379-0.078,24.056L71.381,86.427z"/>
	<path d="M228.015,370.385c2.933-1.583,5.883-3.221,8.833-5.021l0.119-0.044l0.089-0.077
		c12.676-7.282,24.681-15.673,35.875-25.075c4.987-4.092,9.766-8.432,14.317-13.003c5.242-4.992,10.225-10.204,15.033-15.692
		c5.339-5.971,10.341-12.235,14.983-18.763c9.179-12.521,17.196-25.854,23.95-39.834c9.527-19.732,16.491-40.601,20.725-62.1
		c2.691-13.518,4.263-27.236,4.7-41.013c0.075-1.092,0.133-2.133,0.175-3.15c-5.769-4.255-11.788-8.161-18.025-11.696
		c-2.456-1.44-4.863-2.722-7.362-4.013l-0.012-0.004c-3-1.536-6.042-2.937-9.089-4.299c0.286,4.567,0.439,9.111,0.439,13.599
		c0,3.813-0.083,7.534-0.267,11.254v0.009c-0.295,5.893-0.883,11.746-1.634,17.572c-0.252,1.962-0.597,3.903-0.899,5.855
		c-0.607,3.893-1.292,7.765-2.1,11.614c-0.457,2.182-0.94,4.354-1.463,6.521c-0.938,3.894-2.005,7.748-3.148,11.584
		c-0.54,1.806-1.023,3.623-1.608,5.416c-1.822,5.597-3.831,11.131-6.086,16.572l-0.095,0.258c-1.25,2.954-2.492,5.775-3.808,8.604
		c-0.267,0.585-0.615,1.162-0.89,1.748c-1.415,2.968-2.934,5.885-4.478,8.793c-0.789,1.484-1.451,3.005-2.274,4.467
		c-0.367,0.638-0.683,1.171-1,1.646l-0.052,0.087c-0.64,1.12-1.304,2.224-1.965,3.334c-0.292,0.476-0.548,0.969-0.85,1.442
		c-0.405,0.826-0.867,1.622-1.383,2.383l-0.608,0.908c-0.883,1.45-1.775,2.833-2.725,4.212c-0.117,0.208-0.234,0.408-0.367,0.604
		l-1.025,1.538l-0.015,0.02l-0.019,0.03l-0.115,0.154c-2.375,3.513-4.894,6.917-7.419,10.225
		c-0.325,0.425-0.667,0.854-1.008,1.246c-0.39,0.507-0.83,0.985-1.225,1.491c-1.5,1.898-3.045,3.749-4.6,5.596
		c-0.479,0.554-0.902,1.151-1.392,1.693c-1.167,1.404-2.558,2.979-4.042,4.558c-0.465,0.513-0.996,1.036-1.469,1.55
		c-1.829,1.981-3.663,3.952-5.558,5.865c-0.262,0.264-0.483,0.525-0.748,0.789c-2.4,2.404-4.908,4.817-7.5,7.142
		c-0.279,0.263-0.607,0.522-0.89,0.784c-1.602,1.445-3.215,2.875-4.856,4.275c-3.935,3.394-8.073,6.785-12.713,10.217
		c-2.483,1.862-4.933,3.588-7.567,5.308c-12.919,8.854-26.77,16.264-41.304,22.097l-0.02,0.009l-0.034,0.015
		c-5.375,2.229-11.217,4.35-17.267,6.254l-0.392,0.146c-13.805,4.334-28.005,7.295-42.392,8.837
		c-7.003,0.802-14.043,1.245-21.092,1.329c-0.9,0.075-2.392,0.083-3.775,0.083c-8.751-0.063-17.491-0.639-26.175-1.726
		c0.323,0.88,0.639,1.757,0.994,2.625c3.165,7.987,6.876,15.748,11.106,23.226c0.917,1.675,1.858,3.246,2.8,4.813l0.042,0.062
		l0.142,0.225c0.994,1.607,2.052,3.187,3.079,4.781c2.671,0.094,5.342,0.128,8.013,0.128h1.966c4.917,0,9.834-0.163,14.592-0.492
		C159.824,397.597,195.544,387.513,228.015,370.385z"/>
	<path d="M2.465,488.302c-3.3,3.338-3.284,8.713,0.034,12.032c3.319,3.319,8.695,3.334,12.032,0.034l82.94-82.944l-9.506-14.626
		L2.465,488.302z"/>
	<path d="M509.465,488.302l-85.5-85.504l-9.506,14.627l82.94,82.944c2.154,2.163,5.299,3.01,8.248,2.222
		c2.949-0.788,5.252-3.092,6.04-6.041C512.475,493.601,511.627,490.456,509.465,488.302z"/>
</svg>
